# xmcd
#
# Track frame offsets:
#	150
#	11450
#	22950
#	35225
#	49288
#	60388
#	71588
#	84175
#	97000
#	107038
#	119388
#	133588
#	145638
#	158213
#	169675
#	176275
#	189513
#	216975
#	228425
#	241888
#	253063
#	263788
#	277350
#	288913
#	298913
#
# Disc length: 4134
#
# Revision: 6
# Processed by: cddbd v1.5.1PL0 Copyright (c) Steve Scherf et al.
# Submitted via: dBpowerAMP V4.0
# Normalized: r2:TSWAP
#
DISCID=70102419
DTITLE=Various Artist - Almost Persuaded - 25 Country Classics
DYEAR=2003
DGENRE=Country
TTITLE0=George Jones - Swinging Doors
TTITLE1=Roy Drusky - Blue Eyes Crying In The Rain
TTITLE2=Don Williams - On Her Way To Being A Woman
TTITLE3=Boxcar Willie - He'll Have To Go
TTITLE4=Faron Young - Wine Me Up
TTITLE5=Sanford Clark - Big Time Day Tomorrow
TTITLE6=Leroy Van Dyke - The Auctioneer
TTITLE7=Freddie Fender - Almost Persuaded
TTITLE8=Dave Dudley - Six Days On The Road
TTITLE9=Johnny Paycheck - All The Time
TTITLE10=Carl Perkins - Georgie Court Room
TTITLE11=Jerry Wallace - Release Me
TTITLE12=Merle Kilgore - 42 In Chicago
TTITLE13=Carl Belew - Little Miss Heartache
TTITLE14=Tennessee Ernie Ford - You Gotta See Mama
TTITLE15=Ferlin Husky - Room Ful Of Roses
TTITLE16=Jerry Lee Lewis - Mexicali Rose
TTITLE17=Don Gisbson - A Legend In My Time
TTITLE18=Freddie Fender - Just Because
TTITLE19=Johnny Paycheck - Apartment No. 9
TTITLE20=David Houston - Maiden's Prayer
TTITLE21=Gene Vincent - I'm A Lonesome Fugitive
TTITLE22=Ernest Tubb - Slippin' Around
TTITLE23=Buck Owens - Rhythm 'n' Booze
TTITLE24=Razzy Bailey - 99.999.999 Tears
EXTD=
EXTT0=
EXTT1=
EXTT2=
EXTT3=
EXTT4=
EXTT5=
EXTT6=
EXTT7=
EXTT8=
EXTT9=
EXTT10=
EXTT11=
EXTT12=
EXTT13=
EXTT14=
EXTT15=
EXTT16=
EXTT17=
EXTT18=
EXTT19=
EXTT20=
EXTT21=
EXTT22=
EXTT23=
EXTT24=
PLAYORDER=
